<?xml version="1.0" standalone="no"?>
<!DOCTYPE svg PUBLIC "-//W3C//DTD SVG 20010904//EN"
 "http://www.w3.org/TR/2001/REC-SVG-20010904/DTD/svg10.dtd">
<svg version="1.0" xmlns="http://www.w3.org/2000/svg"
 width="1024.000000pt" height="1024.000000pt" viewBox="0 0 1024.000000 1024.000000"
 preserveAspectRatio="xMidYMid meet">

<g transform="translate(0.000000,1024.000000) scale(0.100000,-0.100000)"
fill="#000000" stroke="none">
<path d="M4790 8115 c-251 -28 -282 -35 -318 -71 -21 -21 -32 -40 -28 -51 2
-10 7 -43 11 -73 4 -30 17 -120 30 -200 13 -80 26 -166 30 -192 3 -26 16 -59
27 -74 20 -25 25 -26 82 -20 384 40 418 45 436 61 41 37 32 103 -18 129 -26
13 -43 14 -143 1 -63 -8 -135 -16 -161 -18 l-47 -4 -6 39 c-4 22 -5 41 -3 44
7 6 104 22 184 29 119 11 164 58 118 123 -28 40 -45 43 -156 27 -56 -8 -119
-15 -139 -15 -35 0 -37 1 -42 42 -3 24 -4 44 -2 46 6 7 209 31 258 32 60 0
107 23 108 53 3 46 -3 63 -27 85 -28 25 -31 25 -194 7z"/>
<path d="M5354 8106 c-18 -8 -34 -18 -38 -24 -10 -17 -58 -412 -59 -496 -2
-79 -2 -80 30 -101 26 -18 58 -24 180 -35 82 -7 174 -11 204 -8 104 9 203 78
250 174 36 74 34 188 -4 265 -56 114 -168 184 -337 212 -160 26 -192 28 -226
13z m289 -198 c85 -37 129 -117 107 -197 -13 -49 -62 -97 -106 -106 -40 -7
-165 3 -184 15 -11 7 -11 31 -1 127 7 65 15 135 18 156 l6 39 56 -7 c31 -4 77
-16 104 -27z"/>
<path d="M4015 7951 c-39 -17 -57 -45 -160 -268 -27 -57 -51 -103 -55 -103 -3
0 -14 24 -24 53 -24 68 -60 124 -86 132 -30 9 -86 -12 -104 -40 -25 -38 -19
-70 33 -189 27 -61 72 -167 100 -236 50 -120 69 -150 99 -150 8 0 10 5 6 13
-6 10 -4 10 7 0 20 -19 38 -16 76 13 39 30 40 45 12 134 -22 66 -22 67 -4 108
11 23 26 42 34 42 8 0 78 -29 156 -65 78 -36 153 -65 167 -65 35 0 90 40 101
74 17 50 -13 73 -188 152 -88 39 -160 75 -162 80 -2 5 22 61 52 124 30 63 55
124 55 137 0 12 -12 31 -26 42 -28 22 -55 25 -89 12z"/>
<path d="M6413 7633 c-87 -58 -185 -124 -218 -146 -93 -61 -115 -86 -115 -125
0 -42 46 -92 85 -92 27 0 79 23 107 47 14 13 32 6 160 -59 l143 -73 5 -58 c5
-51 10 -63 38 -88 38 -35 86 -38 121 -9 23 20 23 23 26 238 2 119 0 259 -5
311 -7 92 -8 96 -44 128 -31 29 -42 33 -91 33 -53 0 -59 -3 -212 -107z m177
-167 c0 -52 -4 -98 -10 -101 -12 -8 -143 56 -148 71 -3 11 134 123 151 124 4
0 7 -42 7 -94z"/>
<path d="M3080 7396 c-71 -20 -110 -45 -170 -105 -145 -145 -161 -347 -38
-485 99 -114 262 -135 418 -56 67 34 155 125 186 192 24 53 29 76 29 143 0 67
-4 89 -27 135 -40 81 -82 125 -145 155 -67 32 -182 42 -253 21z m114 -165 c69
-17 126 -88 126 -159 0 -56 -23 -105 -67 -141 -90 -75 -197 -64 -248 24 -57
96 -12 222 95 269 41 18 44 18 94 7z m226 -365 c0 -2 -8 -10 -17 -17 -16 -13
-17 -12 -4 4 13 16 21 21 21 13z"/>
<path d="M7225 7308 c-11 -5 -60 -60 -110 -121 -49 -61 -115 -140 -146 -176
-76 -90 -83 -104 -69 -145 15 -46 44 -70 85 -70 42 0 73 27 165 148 36 47 68
86 73 86 4 0 7 -10 7 -23 0 -13 7 -125 15 -251 16 -240 22 -266 71 -305 60
-47 100 -24 245 143 197 227 198 229 174 292 -16 43 -46 64 -92 64 -29 0 -80
-48 -158 -152 -55 -72 -65 -71 -65 6 0 77 -29 377 -40 418 -20 71 -98 115
-155 86z"/>
<path d="M4900 7204 c-663 -80 -1258 -368 -1715 -828 -288 -290 -539 -687
-663 -1051 -48 -143 -86 -312 -102 -466 -11 -110 -13 -379 -2 -379 4 0 66 -7
137 -15 181 -20 559 -52 750 -65 133 -8 791 -39 847 -40 10 0 32 -29 58 -77
109 -203 253 -343 454 -443 460 -228 1027 -73 1302 355 22 34 50 84 63 113
l24 52 56 0 c66 0 383 15 666 30 228 13 740 54 925 74 69 8 129 11 134 8 12
-7 -1 334 -17 458 -10 77 -10 100 0 120 7 14 12 32 12 40 0 8 -6 -1 -13 -20
-12 -33 -13 -34 -19 -10 -10 36 -8 60 3 35 8 -19 9 -19 9 3 1 12 -3 22 -7 22
-5 0 -14 11 -20 25 -15 32 -15 35 -2 35 6 0 10 -10 10 -22 0 -12 3 -19 6 -15
10 10 -5 56 -25 76 -22 22 -40 67 -22 57 6 -4 13 5 18 21 l7 28 7 -25 c6 -20
7 -17 8 18 1 36 -2 42 -20 42 -19 0 -21 -4 -14 -37 4 -25 3 -35 -3 -28 -10 10
-18 55 -28 168 -5 53 -4 57 15 57 24 0 28 25 6 34 -8 3 -15 15 -15 26 0 14 -4
19 -12 14 -7 -5 -8 -3 -3 5 4 7 16 11 26 8 10 -3 17 0 16 7 -1 6 6 10 17 8 10
-2 15 1 12 6 -3 6 1 12 8 15 8 3 17 3 19 -1 2 -4 3 -2 1 4 -1 6 3 17 9 24 7 6
-12 -3 -41 -21 -42 -26 -67 -34 -115 -37 l-62 -4 -54 99 c-425 779 -1143 1305
-2007 1469 -121 23 -170 27 -374 29 -129 2 -251 1 -270 -1z m623 -143 c297
-53 561 -147 822 -293 139 -77 223 -134 355 -238 106 -85 369 -340 427 -416
96 -124 168 -224 191 -264 14 -25 30 -48 35 -51 6 -4 7 -15 3 -25 -4 -10 -4
-15 0 -11 8 8 64 -75 64 -93 0 -5 5 -10 10 -10 6 0 10 -6 10 -12 0 -7 19 -51
43 -99 26 -52 41 -95 39 -112 -3 -24 -7 -27 -41 -27 -37 0 -39 -2 -45 -37 -3
-21 -6 -50 -6 -65 0 -16 -4 -28 -10 -28 -5 0 -10 18 -10 40 0 22 -4 40 -10 40
-6 0 -10 -59 -10 -157 0 -87 -3 -168 -6 -180 -5 -20 -2 -23 22 -24 l29 -2 -30
-5 c-26 -4 -28 -5 -10 -12 16 -7 13 -9 -15 -10 -19 0 -91 -5 -160 -10 -311
-25 -414 -31 -700 -45 -168 -8 -325 -15 -350 -15 l-45 0 -21 88 c-46 190 -130
340 -273 483 -136 135 -283 220 -468 271 -108 29 -360 32 -478 4 -192 -44
-344 -128 -486 -268 -139 -136 -233 -297 -277 -474 l-26 -105 -125 6 c-69 3
-229 10 -356 16 -344 14 -1037 68 -1050 80 -7 8 64 267 100 364 188 508 560
977 1012 1276 163 108 261 162 423 232 236 102 420 159 620 191 146 24 149 24
425 21 213 -2 282 -6 378 -24z m2196 -1674 c0 -21 -1 -21 -9 -2 -12 28 -12 37
0 30 6 -3 10 -16 9 -28z m-2477 -18 c216 -43 399 -208 469 -421 32 -96 35
-292 6 -378 -71 -213 -235 -370 -444 -425 -77 -21 -240 -21 -318 0 -173 45
-334 175 -410 331 -61 124 -81 300 -50 433 50 210 231 394 444 452 76 20 223
24 303 8z m2228 -49 c0 -29 -4 -40 -15 -40 -11 0 -15 11 -15 40 0 29 4 40 15
40 11 0 15 -11 15 -40z m90 10 c0 -5 -5 -10 -11 -10 -5 0 -7 5 -4 10 3 6 8 10
11 10 2 0 4 -4 4 -10z m12 -102 c-9 -9 -12 -1 -11 33 l1 44 11 -33 c7 -24 7
-36 -1 -44z m47 -21 c1 -5 -3 -5 -9 -2 -5 3 -10 16 -9 28 0 21 1 21 9 2 5 -11
9 -24 9 -28z m0 -133 c1 11 4 17 7 13 3 -3 3 -15 -1 -28 -6 -17 -9 -19 -16 -8
-5 8 -8 21 -8 29 0 10 3 8 9 -5 8 -19 9 -19 9 -1z m34 -24 c3 -11 1 -18 -4
-14 -5 3 -9 12 -9 20 0 20 7 17 13 -6z m-117 -47 c-15 -4 -16 -7 -5 -15 11 -8
10 -9 -4 -4 -10 3 -28 7 -40 7 -17 1 -15 3 8 9 17 4 37 8 45 8 8 0 6 -3 -4 -5z"/>
<path d="M7370 5704 c0 -3 7 -12 15 -20 16 -17 18 -14 9 10 -6 15 -24 23 -24
10z"/>
<path d="M7441 5594 c0 -11 3 -14 6 -6 3 7 2 16 -1 19 -3 4 -6 -2 -5 -13z"/>
<path d="M7360 5533 c0 -14 9 -16 53 -13 27 2 39 -22 17 -35 -12 -8 -13 -45
-1 -45 13 0 23 48 16 79 -5 23 -10 26 -45 26 -26 0 -40 -4 -40 -12z"/>
<path d="M7464 5518 c13 -41 16 -69 7 -64 -5 4 -13 1 -17 -5 -5 -9 1 -10 22
-5 16 4 30 9 31 10 5 4 -32 75 -39 76 -4 0 -6 -6 -4 -12z"/>
<path d="M7385 5470 c3 -5 8 -10 11 -10 2 0 4 5 4 10 0 6 -5 10 -11 10 -5 0
-7 -4 -4 -10z"/>
<path d="M2472 6728 c-98 -17 -167 -74 -294 -242 -76 -102 -84 -119 -70 -150
6 -14 78 -80 159 -147 81 -68 170 -142 197 -166 37 -33 56 -43 83 -43 64 0
112 41 113 96 0 25 -10 42 -47 77 l-47 46 50 56 c109 125 139 209 110 307 -35
122 -135 187 -254 166z m56 -201 c29 -27 28 -65 -4 -113 -33 -50 -85 -104 -99
-104 -6 0 -33 19 -60 43 l-49 43 21 35 c25 39 101 114 123 121 20 7 41 -1 68
-25z"/>
<path d="M7794 6369 c-212 -188 -234 -211 -234 -249 0 -43 25 -87 61 -105 34
-18 61 -13 100 19 124 100 369 320 374 336 18 56 -48 140 -109 140 -29 0 -56
-20 -192 -141z"/>
<path d="M7935 5781 c-3 -5 -2 -12 3 -15 5 -3 9 1 9 9 0 17 -3 19 -12 6z"/>
<path d="M7886 5722 c-3 -6 1 -15 8 -21 8 -7 17 -8 20 -3 3 6 -1 15 -8 21 -8
7 -17 8 -20 3z"/>
<path d="M7847 5704 c-11 -11 3 -24 18 -18 8 4 12 10 9 15 -6 11 -18 12 -27 3z"/>
<path d="M7821 5164 c0 -11 3 -14 6 -6 3 7 2 16 -1 19 -3 4 -6 -2 -5 -13z"/>
<path d="M7820 4983 c0 -14 3 -23 7 -19 10 10 11 46 1 46 -4 0 -8 -12 -8 -27z"/>
<path d="M7822 4231 c-14 -101 -14 -125 -3 -96 9 22 26 185 19 185 -2 0 -10
-40 -16 -89z"/>
<path d="M7801 4085 c0 -11 -7 -49 -16 -85 -8 -36 -18 -81 -21 -100 -3 -19 -9
-44 -14 -55 -5 -11 -18 -51 -31 -90 -23 -76 -74 -204 -120 -303 -25 -56 -30
-100 -9 -87 5 3 6 -5 4 -17 -2 -13 -1 -17 2 -9 4 8 18 30 31 49 18 27 22 43
17 66 -6 29 -5 30 9 11 8 -11 13 -24 10 -30 -4 -5 -3 -7 2 -3 4 4 10 31 12 59
3 42 10 57 34 78 30 27 39 47 15 38 -10 -4 -12 0 -8 16 5 20 4 20 -11 8 -21
-16 -21 -11 -3 24 8 15 12 35 9 44 -4 13 -3 13 5 2 6 -8 8 -19 6 -25 -3 -7 3
-20 11 -31 16 -20 16 -20 11 0 -2 11 -7 38 -10 60 l-6 40 14 -30 14 -30 -1 32
c-1 18 -5 33 -9 33 -5 0 -8 8 -8 18 0 15 2 15 11 2 7 -12 9 -8 7 15 -2 17 3
36 12 43 8 8 9 11 3 7 -7 -3 -13 -3 -13 2 1 15 27 43 40 43 7 0 2 9 -11 20
l-24 19 22 1 c20 0 22 4 18 33 l-5 32 14 -35 c13 -32 15 -33 15 -9 1 14 -6 34
-14 45 -8 10 -14 24 -15 29 0 6 5 3 10 -5 7 -11 9 -3 8 27 -1 43 -17 87 -17
48z m-126 -515 c3 -5 1 -10 -4 -10 -6 0 -11 5 -11 10 0 6 2 10 4 10 3 0 8 -4
11 -10z m-10 -30 c3 -5 1 -10 -4 -10 -6 0 -11 5 -11 10 0 6 2 10 4 10 3 0 8
-4 11 -10z"/>
<path d="M7832 4000 c0 -14 2 -19 5 -12 2 6 2 18 0 25 -3 6 -5 1 -5 -13z"/>
<path d="M7795 3816 c0 -18 3 -22 13 -14 6 6 12 17 12 24 0 8 -6 14 -12 14 -7
0 -13 -11 -13 -24z"/>
<path d="M7554 3365 c-13 -32 -104 -184 -146 -244 -22 -32 -36 -62 -33 -70 3
-9 3 -12 -1 -8 -4 4 -16 0 -26 -9 -14 -13 -15 -20 -7 -31 9 -11 8 -12 -4 -7
-11 4 -26 -9 -51 -42 -19 -27 -32 -53 -29 -58 4 -5 1 -6 -4 -3 -6 4 -24 -10
-39 -31 -16 -20 -58 -68 -94 -106 -36 -38 -64 -73 -63 -77 2 -5 -2 -8 -8 -6
-6 1 -13 -3 -16 -9 -2 -7 10 -11 36 -10 22 1 38 -1 35 -6 -3 -4 -24 -5 -48 -3
-37 3 -48 -1 -68 -22 -35 -38 -226 -194 -290 -237 -54 -37 -69 -64 -28 -51 10
3 21 2 23 -3 7 -10 -34 -10 -49 1 -13 7 -205 -103 -198 -114 2 -4 -2 -6 -9 -5
-10 1 -172 -73 -230 -105 -63 -35 -330 -121 -478 -155 -221 -50 -295 -57 -617
-59 -213 -1 -306 -5 -314 -13 -9 -9 -7 -13 5 -18 9 -3 22 -4 29 -1 7 3 2 6
-12 7 l-25 2 25 8 c14 4 34 8 45 8 l20 1 -20 -9 c-17 -7 -17 -9 -2 -9 9 -1 17
-5 17 -10 0 -5 20 -11 44 -12 24 -2 43 -1 41 2 -7 10 128 8 183 -2 34 -7 52
-15 52 -25 0 -10 12 -14 40 -14 22 0 40 4 40 9 0 4 21 5 48 0 52 -8 103 -6
120 4 5 4 23 2 38 -4 22 -8 31 -7 39 4 5 7 16 12 24 9 8 -3 11 0 7 6 -8 13 34
28 43 15 3 -6 78 -12 166 -14 88 -3 141 -3 118 -1 -35 3 -43 7 -43 23 0 18 6
20 50 18 40 -2 55 2 73 19 18 17 35 22 80 22 31 0 57 4 57 9 0 5 7 11 14 14
10 4 13 1 9 -9 -3 -7 0 -14 5 -14 6 0 12 19 14 42 l3 43 45 -4 c25 -1 48 -8
52 -14 6 -9 8 -9 8 1 0 8 20 12 64 12 l64 0 8 43 c4 23 9 34 12 25 3 -16 5
-16 18 -3 9 8 26 15 38 15 13 0 31 9 40 19 10 11 31 23 46 26 16 3 34 13 41
21 6 8 16 14 21 14 9 0 13 2 68 49 21 17 50 31 70 33 32 3 35 6 38 41 3 36 22
54 22 20 0 -14 5 -12 24 10 13 15 31 27 40 27 11 0 16 9 16 30 0 28 3 30 38
31 20 1 45 0 55 -1 14 -1 17 5 15 35 -2 32 -4 34 -14 20 -7 -10 -19 -15 -26
-12 -10 4 -10 6 0 6 6 1 12 8 12 16 0 11 12 15 52 15 40 0 49 3 40 12 -15 15
-16 42 -2 33 6 -4 8 -11 5 -16 -10 -15 21 -10 34 5 10 11 9 16 -4 23 -21 12
-5 58 24 66 12 3 19 1 15 -4 -3 -5 0 -9 6 -9 7 0 10 -7 6 -15 -8 -22 -1 -19
33 16 36 35 38 41 14 33 -17 -5 -17 -5 0 9 9 8 17 20 17 26 0 7 4 10 9 7 5 -4
21 7 34 24 14 16 33 30 41 30 19 0 19 1 3 34 -8 14 -17 23 -20 19 -4 -3 -7 1
-7 10 0 10 5 17 11 17 8 0 7 5 -2 16 -11 13 -9 14 14 9 19 -5 34 -1 52 13 30
24 32 31 13 43 -11 7 -10 11 2 18 49 29 89 69 90 87 0 12 7 27 15 34 8 7 15
18 15 26 0 7 12 25 26 39 22 22 25 33 21 61 -5 28 -1 40 18 62 14 15 33 38 44
52 17 20 20 22 21 8 0 -22 20 -24 20 -3 0 8 -5 15 -10 15 -6 0 -15 10 -21 23
l-10 22 5 -22 c5 -29 0 -29 -20 1 -12 19 -13 29 -4 43 9 15 10 14 4 -7 -5 -20
-4 -23 7 -13 9 9 10 18 2 35 -11 22 -11 22 -19 3z m-41 -171 c-8 -21 -31 6
-25 30 5 18 6 18 18 2 7 -10 10 -24 7 -32z m-4 -63 c0 -11 -2 -12 -6 -3 -4 10
-8 10 -19 1 -15 -12 -17 -9 -8 15 7 19 34 9 33 -13z m-65 -16 c-11 -8 -14 -17
-9 -26 5 -8 5 -11 0 -7 -4 4 -14 3 -21 -3 -8 -7 -14 -6 -20 2 -4 7 -3 9 4 5 6
-3 16 3 22 14 6 11 8 20 5 20 -4 0 -4 4 0 10 3 5 12 7 21 3 13 -5 12 -7 -2
-18z m-24 -60 c-7 -8 -17 -15 -23 -15 -6 0 -2 7 9 15 25 19 30 19 14 0z m-166
-190 c3 -8 1 -15 -4 -15 -6 0 -10 7 -10 15 0 8 2 15 4 15 2 0 6 -7 10 -15z
m-78 -117 c-9 -12 -16 -19 -16 -15 0 11 24 47 28 42 2 -2 -3 -14 -12 -27z
m-81 -76 c-3 -3 -11 0 -18 7 -9 10 -8 11 6 5 10 -3 15 -9 12 -12z m-165 -126
c0 -2 -8 -10 -17 -17 -16 -13 -17 -12 -4 4 13 16 21 21 21 13z m21 -59 c-10
-9 -11 -8 -5 6 3 10 9 15 12 12 3 -3 0 -11 -7 -18z m-101 -66 c0 -5 -7 -12
-16 -15 -14 -5 -15 -4 -4 9 14 17 20 19 20 6z m-55 -11 c-3 -5 -12 -10 -18
-10 -7 0 -6 4 3 10 19 12 23 12 15 0z m-350 -220 c3 -6 -1 -7 -9 -4 -18 7 -21
14 -7 14 6 0 13 -4 16 -10z m-38 -14 c0 -8 -8 -11 -21 -8 -19 5 -19 6 0 13 10
4 19 8 20 8 0 1 1 -5 1 -13z m-89 -78 c-2 -6 -10 -13 -16 -14 -9 -2 -9 -1 -1
3 8 4 7 8 -2 14 -11 7 -10 9 4 9 10 0 17 -5 15 -12z m-161 -74 c-3 -3 -12 -4
-19 -1 -8 3 -5 6 6 6 11 1 17 -2 13 -5z m-237 -94 c0 -5 -2 -10 -4 -10 -3 0
-8 5 -11 10 -3 6 -1 10 4 10 6 0 11 -4 11 -10z m70 0 c-8 -5 -26 -10 -40 -10
-20 0 -22 2 -10 10 8 5 26 10 40 10 20 0 22 -2 10 -10z m-967 -59 c10 -4 -17
-7 -60 -7 -59 0 -68 1 -38 6 54 10 77 10 98 1z m85 2 c-10 -2 -26 -2 -35 0
-10 3 -2 5 17 5 19 0 27 -2 18 -5z m249 -9 c-3 -3 -12 -4 -19 -1 -8 3 -5 6 6
6 11 1 17 -2 13 -5z"/>
<path d="M7340 2825 c0 -8 2 -15 4 -15 2 0 6 7 10 15 3 8 1 15 -4 15 -6 0 -10
-7 -10 -15z"/>
<path d="M7005 2459 c-4 -6 -3 -15 3 -21 6 -6 11 -4 15 6 7 18 -9 31 -18 15z"/>
<path d="M6640 2150 c0 -5 5 -10 10 -10 6 0 10 5 10 10 0 6 -4 10 -10 10 -5 0
-10 -4 -10 -10z"/>
<path d="M6410 2030 c0 -5 5 -10 10 -10 6 0 10 5 10 10 0 6 -4 10 -10 10 -5 0
-10 -4 -10 -10z"/>
<path d="M6172 1982 c-10 -3 -10 -7 0 -20 10 -12 10 -14 1 -8 -9 5 -13 0 -13
-13 0 -24 18 -28 26 -7 9 23 0 53 -14 48z"/>
<path d="M4428 1963 c7 -3 16 -2 19 1 4 3 -2 6 -13 5 -11 0 -14 -3 -6 -6z"/>
<path d="M4508 1943 c6 -2 18 -2 25 0 6 3 1 5 -13 5 -14 0 -19 -2 -12 -5z"/>
<path d="M4730 1906 c0 -9 37 -12 55 -5 15 6 11 8 -17 8 -21 1 -38 -1 -38 -3z"/>
<path d="M5550 1820 c-11 -7 -7 -10 18 -10 17 0 32 5 32 10 0 13 -30 13 -50 0z"/>
</g>
</svg>
